#!OML:ASF H:\GeneralSubjects\Female5\Project 1\Capture day 1\Session 1\Female5.ASF
:FULLY-SPECIFIED
:DEGREES
766
root 19.1256 15.955 -10.2083 -130.473 -85.5735 -223.056
lowerback 17.9414 -0.592594 -9.64703
upperback -13.1039 -3.00822 6.17122
thorax -25.5722 1.37132 14.6504
lowerneck -11.588 6.26288 -0.106815
upperneck 45.1175 10.5978 -7.99569
head 20.3346 1.96856 -2.36239
rclavicle -1.55052e-014 -2.06736e-014
rhumerus -60.0127 30.5443 -86.6044
rradius 36.8688
rwrist -16.6112
rhand -25.4856 -20.7954
rfingers 7.12502
rthumb 1.04259 -50.7726
lclavicle -1.55052e-014 -2.06736e-014
lhumerus -61.8172 10.6973 72.6099
lradius 41.7388
lwrist -2.32611
lhand -25.4157 27.8162
lfingers 7.12502
lthumb 1.11003 57.7931
rfemur -28.8328 6.02871 18.8083
rtibia 20.3733
rfoot -18.9546 -23.0223
rtoes -16.2586
lfemur -0.435808 -19.8103 -39.2291
ltibia 7.72278
lfoot -12.4364 -13.8815
ltoes -6.46206
767
root 18.8959 15.943 -10.253 -126.912 -85.8525 -226.432
lowerback 17.6057 -0.55651 -10.2941
upperback -13.4371 -3.16395 6.25722
thorax -25.7709 1.48338 15.2572
lowerneck -9.67588 5.92239 0.41863
upperneck 44.847 9.90847 -8.66815
head 19.6307 1.74091 -2.9564
rclavicle 2.0276e-014 -3.49861e-014
rhumerus -61.7307 30.0635 -86.6032
rradius 36.9357
rwrist -16.4501
rhand -25.6283 -21.1424
rfingers 7.12502
rthumb 0.904777 -51.1202
lclavicle 2.0276e-014 -3.49861e-014
lhumerus -61.9982 9.73866 73.507
lradius 42.2481
lwrist -2.50842
lhand -25.8535 26.7764
lfingers 7.12502
lthumb 0.687273 56.755
rfemur -27.7957 11.1719 16.7955
rtibia 12.372
rfoot -22.2601 -24.7132
rtoes -11.8139
lfemur 0.629919 -19.6677 -39.3634
ltibia 7.16088
lfoot -12.0185 -14.0676
ltoes -6.23273
768
root 18.6632 15.9243 -10.2996 -121.296 -86.1547 -231.818
lowerback 17.6835 -0.65227 -10.4685
upperback -13.6837 -3.41729 6.16354
thorax -26.1087 1.45634 15.393
lowerneck -9.46899 5.96598 0.971101
upperneck 45.0723 9.79255 -8.63978
head 19.7507 1.78603 -3.08844
rclavicle -3.97569e-014 1.74931e-014
rhumerus -62.902 29.3792 -86.5432
rradius 37.0017
rwrist -16.1143
rhand -25.569 -21.214
rfingers 7.12502
rthumb 0.962011 -51.1915
lclavicle -3.97569e-014 1.74931e-014
lhumerus -61.8218 9.03758 73.9862
lradius 42.6816
lwrist -2.58328
lhand -26.4445 24.6291
lfingers 7.12502
lthumb 0.116447 54.6088
rfemur -27.1315 19.0924 13.2564
rtibia 4.71995
rfoot -30.1764 -26.846
rtoes -1.71897
lfemur 1.60172 -19.5703 -39.5253
ltibia 6.70376
lfoot -11.3855 -14.4036
ltoes -6.0941
769
root 18.4249 15.8977 -10.3486 -114.725 -86.3618 -238.203
lowerback 17.5172 -0.776682 -10.5283
upperback -13.7133 -3.61382 6.07691
thorax -25.9461 1.35059 15.3627
lowerneck -9.58997 5.85217 1.0769
upperneck 44.9359 9.6466 -8.74913
head 19.6952 1.74388 -3.17512
rclavicle -2.14687e-014 -2.22639e-014
rhumerus -63.3714 28.9357 -86.3553
rradius 36.732
rwrist -15.7925
rhand -25.5896 -21.3524
rfingers 7.12502
rthumb 0.942122 -51.3301
lclavicle -2.14687e-014 -2.22639e-014
lhumerus -61.0616 8.61828 74.5074
lradius 42.9469
lwrist -2.68556
lhand -26.3117 27.1661
lfingers 7.12502
lthumb 0.244686 57.1457
rfemur -27.9515 30.3214 7.5792
rtibia -0.56255
rfoot -41.0287 -32.6495
rtoes 2.91293
lfemur 2.54417 -19.4691 -39.7216
ltibia 6.33574
lfoot -10.7219 -14.8008
ltoes -5.59305
770
root 18.182 15.8616 -10.3969 -107.846 -86.6005 -244.893
lowerback 17.1884 -1.05028 -9.86186
upperback -13.4309 -3.74292 5.9229
thorax -25.2297 1.03071 14.6777
lowerneck -11.2496 6.019 0.570498
upperneck 45.12 10.0314 -8.16043
head 20.2515 1.86041 -2.68703
rclavicle -8.34896e-014 5.725e-014
rhumerus -62.8099 28.7714 -86.2302
rradius 36.1874
rwrist -15.6974
rhand -25.5469 -22.0057
rfingers 7.12502
rthumb 0.983404 -51.9832
lclavicle -8.34896e-014 5.725e-014
lhumerus -59.5245 8.48824 74.8686
lradius 43.0958
lwrist -2.64321
lhand -26.4252 27.5018
lfingers 7.12502
lthumb 0.135111 57.4815
rfemur -26.1965 30.9996 7.78926
rtibia -5.56792
rfoot -46.7117 -20.7067
rtoes 25.1921
lfemur 3.45556 -19.4421 -39.8055
ltibia 5.98879
lfoot -10.0856 -15.1285
ltoes -5.36981
771
root 17.9367 15.8181 -10.4421 -99.6972 -86.9562 -252.863
lowerback 16.8111 -1.04041 -10.2101
upperback -13.6935 -3.81742 6.05575
thorax -25.3138 1.10396 15.1049
lowerneck -10.1328 5.7509 0.717564
upperneck 45.1886 9.48492 -8.33906
head 19.9409 1.65603 -2.93936
rclavicle -4.81059e-014 3.81667e-014
rhumerus -64.0454 28.1798 -85.8783
rradius 35.9263
rwrist -15.57
rhand -25.2228 -21.7057
rfingers 7.12502
rthumb 1.29635 -51.6815
lclavicle -4.81059e-014 3.81667e-014
lhumerus -59.5689 7.79208 75.7921
lradius 43.4734
lwrist -2.48701
lhand -26.4885 27.2731
lfingers 7.12502
lthumb 0.0739249 57.2529
rfemur -26.5258 31.5458 7.89347
rtibia -6.96079
rfoot -46.0484 -20.5904
rtoes 26.8378
lfemur 4.41175 -19.5353 -39.7533
ltibia 5.67044
lfoot -9.70201 -15.3269
ltoes -5.79819
772
root 17.6826 15.774 -10.4872 -89.7899 -87.2152 -262.668
lowerback 16.7774 -1.15116 -9.96645
upperback -13.8045 -3.9158 6.04936
thorax -25.4298 1.03397 14.9996
lowerneck -9.70652 5.58431 1.26598
upperneck 44.7769 9.32119 -9.04326
head 19.6298 1.62889 -3.40154
rclavicle 5.48646e-014 -6.20208e-014
rhumerus -64.5556 27.5942 -85.4296
rradius 35.4098
rwrist -15.1595
rhand -25.1918 -19.9899
rfingers 7.12502
rthumb 1.32629 -49.9655
lclavicle 5.48646e-014 -6.20208e-014
lhumerus -59.2985 7.43155 76.395
lradius 43.7983
lwrist -2.3426
lhand -26.4378 27.5132
lfingers 7.12502
lthumb 0.122903 57.4929
rfemur -26.7488 32.062 7.97575
rtibia -7.38588
rfoot -44.4627 -24.6147
rtoes 19.0622
lfemur 5.42095 -19.5566 -39.7413
ltibia 5.44071
lfoot -9.54814 -15.3526
ltoes -6.3547
773
root 17.4217 15.7326 -10.5341 -80.1316 -87.2028 -272.262
lowerback 16.6961 -1.25525 -9.85881
upperback -13.9176 -4.04958 5.99707
thorax -25.4966 0.961048 14.9219
lowerneck -9.99824 5.45232 0.687229
upperneck 45.2292 9.09259 -8.58641
head 19.9163 1.45862 -3.14384
rclavicle -7.15625e-015 -9.54166e-015
rhumerus -65.1345 27.2041 -85.1847
rradius 34.8249
rwrist -14.7566
rhand -25.5708 -18.5679
rfingers 7.12502
rthumb 0.960293 -48.5455
lclavicle -7.15625e-015 -9.54166e-015
lhumerus -59.2116 7.17062 76.9732
lradius 44.1929
lwrist -2.27314
lhand -26.4637 28.2605
lfingers 7.12502
lthumb 0.0978523 58.2403
rfemur -27.0909 32.5916 7.78066
rtibia -6.57605
rfoot -43.0658 -27.1822
rtoes 12.2425
lfemur 6.43607 -19.9245 -39.9647
ltibia 5.40508
lfoot -9.67805 -15.7032
ltoes -6.69619
774
root 17.1567 15.6903 -10.5795 -74.1997 -87.0791 -278.126
lowerback 16.5576 -1.33466 -9.78384
upperback -13.9837 -4.15154 5.91038
thorax -25.46 0.885306 14.7892
lowerneck -10.0011 5.58236 1.1202
upperneck 45.2288 9.24174 -8.68554
head 19.9745 1.58735 -3.24522
rclavicle -3.45885e-014 7.95139e-015
rhumerus -65.5465 26.9458 -85.0941
rradius 34.3442
rwrist -14.5388
rhand -25.4504 -19.1588
rfingers 7.12502
rthumb 1.07657 -49.1359
lclavicle -3.45885e-014 7.95139e-015
lhumerus -59.1567 7.01501 77.4407
lradius 44.6549
lwrist -2.1819
lhand -26.4744 29.0415
lfingers 7.12502
lthumb 0.0875433 59.0212
rfemur -27.6638 33.2104 7.37406
rtibia -4.535
rfoot -43.5321 -26.9385
rtoes 12.2973
lfemur 7.44753 -20.4551 -40.3623
ltibia 5.34431
lfoot -10.0408 -16.2599
ltoes -6.89855
775
root 16.8803 15.6495 -10.6273 -71.6978 -86.9101 -280.632
lowerback 16.5225 -1.46794 -9.38576
upperback -13.9228 -4.24496 5.69275
thorax -25.3262 0.713685 14.2684
lowerneck -10.9917 5.78579 0.783325
upperneck 45.5428 9.54523 -8.09608
head 20.4381 1.69564 -2.83012
rclavicle -4.85035e-014 4.29375e-014
rhumerus -65.3968 26.6244 -84.9611
rradius 33.9175
rwrist -14.2167
rhand -24.4315 -21.165
rfingers 7.12502
rthumb 2.06062 -51.1348
lclavicle -4.85035e-014 4.29375e-014
lhumerus -58.9355 6.92562 77.629
lradius 45.0166
lwrist -1.97225
lhand -26.3925 29.0681
lfingers 7.12502
lthumb 0.166678 59.0478
rfemur -29.2049 34.0028 6.82793
rtibia -1.25913
rfoot -39.3105 -33.9955
rtoes -2.85748
lfemur 8.42452 -19.8888 -40.6935
ltibia 6.24706
lfoot -9.34323 -17.3132
ltoes -7.16914
776
root 16.5955 15.6134 -10.6813 -70.9658 -86.6686 -281.44
lowerback 16.5558 -1.4832 -9.52304
upperback -14.0328 -4.35756 5.52826
thorax -25.4771 0.690899 14.2006
lowerneck -10.9198 5.82808 0.981682
upperneck 45.608 9.53828 -8.06163
head 20.4732 1.72977 -2.85691
rclavicle -1.31198e-014 -7.95139e-015
rhumerus -65.7003 26.1599 -84.7186
rradius 33.4314
rwrist -13.6331
rhand -23.5996 -22.0189
rfingers 7.12502
rthumb 2.86406 -51.9795
lclavicle -1.31198e-014 -7.95139e-015
lhumerus -59.3658 6.59128 78.014
lradius 45.3548
lwrist -1.72788
lhand -26.4392 28.4687
lfingers 7.12502
lthumb 0.121568 58.4484
rfemur -27.6343 28.1729 10.7366
rtibia 0.590921
rfoot -29.1875 -32.8197
rtoes -13.6146
lfemur 9.57379 -19.6745 -41.1719
ltibia 6.79576
lfoot -9.2535 -17.7944
ltoes -7.77258
777
root 16.3077 15.5827 -10.7377 -71.1195 -86.3977 -281.432
lowerback 16.5144 -1.37179 -10.1721
upperback -14.2668 -4.43649 5.49885
thorax -25.7504 0.824182 14.6299
lowerneck -10.1452 5.71956 0.953141
upperneck 45.8883 9.23319 -7.99062
head 20.3987 1.59789 -2.91519
rclavicle -1.66979e-014 1.59028e-015
rhumerus -66.469 25.8252 -84.4307
rradius 32.9776
rwrist -13.3838
rhand -23.4299 -22.075
rfingers 7.12502
rthumb 3.02789 -52.0333
lclavicle -1.66979e-014 1.59028e-015
lhumerus -60.2718 6.41033 78.5622
lradius 45.5593
lwrist -1.71303
lhand -26.6046 28.0411
lfingers 7.12502
lthumb -0.0381815 58.0208
rfemur -27.1794 29.7749 10.2501
rtibia -0.424265
rfoot -24.069 -36.211
rtoes -16.4941
lfemur 10.6987 -19.5917 -41.7426
ltibia 7.41348
lfoot -9.3728 -18.1552
ltoes -8.42935
778
root 16.0135 15.5596 -10.7923 -71.164 -86.3542 -281.534
lowerback 16.3526 -1.35671 -10.223
upperback -14.3199 -4.42821 5.47424
thorax -25.7133 0.827218 14.6157
lowerneck -9.68853 5.66304 1.00126
upperneck 45.8949 9.17088 -8.23532
head 20.2918 1.54793 -3.07491
rclavicle -2.38542e-014 1.90833e-014
rhumerus -66.7638 25.7648 -84.347
rradius 32.5729
rwrist -13.6836
rhand -23.615 -22.3922
rfingers 7.12502
rthumb 2.84916 -52.3529
lclavicle -2.38542e-014 1.90833e-014
lhumerus -60.7147 6.66042 78.7914
lradius 45.4064
lwrist -1.84135
lhand -26.7813 28.1086
lfingers 7.12502
lthumb -0.208871 58.0883
rfemur -26.1948 27.5839 11.9573
rtibia 0.31372
rfoot -28.6617 -27.6751
rtoes 11.2782
lfemur 11.7592 -19.7078 -42.0372
ltibia 7.83158
lfoot -9.88749 -18.0743
ltoes -9.32368
779
root 15.7174 15.5486 -10.8457 -71.5247 -86.8826 -281.171
lowerback 15.9966 -1.38892 -9.62497
upperback -14.2897 -4.24582 5.55116
thorax -25.4939 0.759231 14.2416
lowerneck -9.59216 5.85123 1.28674
upperneck 45.7611 9.4051 -8.21569
head 20.2079 1.70991 -3.0585
rclavicle -7.95139e-016 5.08889e-014
rhumerus -66.5895 25.7005 -84.3285
rradius 31.9894
rwrist -13.8724
rhand -23.8382 -22.3067
rfingers 7.12502
rthumb 2.6336 -52.2702
lclavicle -7.95139e-016 5.08889e-014
lhumerus -61.0549 6.91995 78.8713
lradius 45.176
lwrist -1.84784
lhand -26.7653 28.0894
lfingers 7.12502
lthumb -0.193387 58.069
rfemur -25.9511 22.8354 15.14
rtibia 3.08301
rfoot -19.6849 -28.0057
rtoes 1.68643
lfemur 12.6955 -20.3589 -41.7244
ltibia 7.89305
lfoot -11.3118 -17.5102
ltoes -10.7208
